<svg width="25" height="25" viewBox="0 0 25 25" fill="none" xmlns="http://www.w3.org/2000/svg">
<g id="Frame 1171274953">
<path id="Vector" d="M21.8747 12.5034C21.8747 13.6492 20.9403 14.5833 19.7913 14.5833C18.6424 14.5833 17.708 13.6492 17.708 12.5034C17.708 11.3575 18.6424 10.4166 19.7913 10.4166C20.9403 10.4166 21.8747 11.3534 21.8747 12.5034Z" fill="#5F5F5F"/>
<path id="Vector_2" d="M7.29167 12.5034C7.29167 13.6492 6.36015 14.5833 5.20697 14.5833C4.0538 14.5833 3.125 13.6492 3.125 12.5034C3.125 11.3575 4.05924 10.4166 5.20697 10.4166C6.35471 10.4166 7.29167 11.3534 7.29167 12.5034Z" fill="#5F5F5F"/>
<path id="Vector_3" d="M14.5837 12.5034C14.5837 13.6492 13.6521 14.5833 12.499 14.5833C11.3458 14.5833 10.417 13.6492 10.417 12.5034C10.417 11.3575 11.3512 10.4166 12.499 10.4166C13.6467 10.4166 14.5837 11.3534 14.5837 12.5034Z" fill="#5F5F5F"/>
</g>
</svg>
