<svg width="25" height="25" viewBox="0 0 25 25" fill="none" xmlns="http://www.w3.org/2000/svg">
<path d="M17 4.10421C12.6363 0.179604 8.46384 2.64641 6.84766 4.28166L8.66586 7.00713C11.575 4.8268 14.3225 6.09866 15.3326 7.00713L17 4.10421Z" fill="#222426"/>
<path d="M21 20.8583C16.5556 16.2509 9.77778 7.76901 7 4.104C6.11111 4.94172 6 7.24544 6 8.29258C7.77778 11.6434 15.2593 20.1602 18.7778 23.9997L21 20.8583Z" fill="#35383B"/>
<path d="M3 20.8583C7.44444 16.2509 14.2222 7.76901 17 4.104C17.8889 4.94172 18 7.24544 18 8.29258C16.2222 11.6434 8.74074 20.1602 5.22222 23.9997L3 20.8583Z" fill="#52575C"/>
</svg>
