<svg width="40" height="40" viewBox="0 0 40 40" fill="none" xmlns="http://www.w3.org/2000/svg">
<ellipse cx="20" cy="20" rx="12" ry="11" fill="#FFEAE3"/>
<path d="M27 20.5024C27 21.3275 26.3272 22 25.5 22C24.6728 22 24 21.3275 24 20.5024C24 19.6774 24.6728 19 25.5 19C26.3272 19 27 19.6745 27 20.5024Z" fill="#1F1F1F"/>
<path d="M16 20.5024C16 21.3275 15.3293 22 14.499 22C13.6687 22 13 21.3275 13 20.5024C13 19.6774 13.6726 19 14.499 19C15.3254 19 16 19.6745 16 20.5024Z" fill="#1F1F1F"/>
<ellipse cx="8" cy="20.5" rx="2" ry="2.5" fill="#FFEAE3"/>
<ellipse cx="32" cy="20.5" rx="2" ry="2.5" fill="#FFEAE3"/>
<path d="M15.0717 25.3928C15.5996 25.8838 16.3182 26.2839 17.1605 26.5633C18.0029 26.842 18.9704 27 19.9999 27C21.0301 27 21.9976 26.842 22.84 26.5633C23.6823 26.2839 24.4002 25.8838 24.928 25.3928C25.0314 25.2964 25.0226 25.1475 24.9069 25.0603C24.7919 24.9737 24.6142 24.981 24.5101 25.078C24.0514 25.5056 23.4064 25.8697 22.6332 26.1253C21.8608 26.3815 20.9616 26.5291 19.9999 26.5291C19.0389 26.5291 18.1397 26.3815 17.3673 26.1253C16.5941 25.8697 15.9483 25.505 15.4896 25.078C15.3863 24.9816 15.2086 24.9737 15.0929 25.0603C14.9778 25.1469 14.9684 25.2958 15.0717 25.3928Z" fill="#1F1F1F"/>
<path d="M19.7461 11.0323C19.1888 11.3547 18.7511 11.8199 18.4546 12.3599C18.1575 12.8999 18 13.5147 18 14.14C18 14.7182 18.1354 15.3058 18.4188 15.8475C18.6115 16.2152 18.8896 16.5038 19.212 16.6998C19.5349 16.8959 19.902 17 20.2755 17C20.6205 17 20.9713 16.9108 21.2942 16.7242C21.5191 16.594 21.6966 16.4046 21.8167 16.1859C21.9368 15.9671 22 15.7184 22 15.4653C22 15.231 21.9452 14.9923 21.8304 14.773C21.7477 14.6152 21.6271 14.49 21.4885 14.4058C21.3495 14.3216 21.1915 14.2768 21.0303 14.2762C20.8812 14.2762 20.729 14.315 20.5899 14.3958C20.4846 14.4573 20.4003 14.5465 20.344 14.6495C20.2876 14.7525 20.2576 14.8694 20.2576 14.9884C20.2576 15.0981 20.2834 15.2105 20.3371 15.313C20.4003 15.4332 20.5436 15.4769 20.6579 15.4105C20.7722 15.344 20.8138 15.1928 20.7506 15.0732C20.7364 15.0455 20.73 15.0178 20.73 14.9884C20.73 14.9569 20.738 14.9253 20.7532 14.8976C20.7685 14.8699 20.7896 14.8472 20.8185 14.83C20.8865 14.7907 20.9581 14.7724 21.0298 14.7724C21.1072 14.7724 21.1846 14.794 21.2515 14.835C21.3189 14.876 21.3758 14.9353 21.4164 15.0117C21.4917 15.1557 21.5275 15.3102 21.5275 15.4636C21.5275 15.6292 21.4859 15.7932 21.4074 15.9361C21.3289 16.079 21.2141 16.2014 21.0661 16.2872C20.8143 16.4329 20.5436 16.5015 20.2755 16.5015C19.9853 16.5015 19.6992 16.4207 19.4485 16.2684C19.1978 16.1161 18.9829 15.8929 18.8322 15.6065C18.5878 15.1396 18.472 14.6362 18.472 14.1388C18.472 13.6016 18.6073 13.0716 18.8628 12.6075C19.1183 12.1433 19.4928 11.7446 19.9731 11.466C20.0874 11.4001 20.129 11.2489 20.0664 11.1287C20.0037 11.0085 19.8599 10.9648 19.7456 11.0307" fill="#1F1F1F"/>
</svg>
