<svg width="25" height="25" viewBox="0 0 25 25" fill="none" xmlns="http://www.w3.org/2000/svg">
<ellipse cx="12.5" cy="12.5" rx="10.5" ry="9.5" fill="#FFEAE3"/>
<path d="M16.875 12.814C16.875 13.3297 16.4545 13.75 15.9375 13.75C15.4205 13.75 15 13.3297 15 12.814C15 12.2984 15.4205 11.875 15.9375 11.875C16.4545 11.875 16.875 12.2966 16.875 12.814Z" fill="#1F1F1F"/>
<path d="M10.125 12.8766C10.125 13.4266 9.67787 13.875 9.12435 13.875C8.57082 13.875 8.125 13.4266 8.125 12.8766C8.125 12.3266 8.57343 11.875 9.12435 11.875C9.67526 11.875 10.125 12.3247 10.125 12.8766Z" fill="#1F1F1F"/>
<ellipse cx="2" cy="12.5" rx="2" ry="2.5" fill="#FFEAE3"/>
<ellipse cx="23" cy="12.5" rx="2" ry="2.5" fill="#FFEAE3"/>
<path d="M8.06457 16.3928C8.53962 16.8838 9.18634 17.2839 9.94445 17.5633C10.7026 17.842 11.5734 18 12.4999 18C13.427 18 14.2979 17.842 15.056 17.5633C15.8141 17.2839 16.4601 16.8838 16.9352 16.3928C17.0282 16.2964 17.0204 16.1475 16.9162 16.0603C16.8127 15.9737 16.6528 15.981 16.5591 16.078C16.1463 16.5056 15.5657 16.8697 14.8699 17.1253C14.1747 17.3815 13.3655 17.5291 12.4999 17.5291C11.635 17.5291 10.8258 17.3815 10.1305 17.1253C9.43468 16.8697 8.85348 16.505 8.44068 16.078C8.34764 15.9816 8.18776 15.9737 8.08358 16.0603C7.98005 16.1469 7.97153 16.2958 8.06457 16.3928Z" fill="#1F1F1F"/>
<path d="M12.3096 6.02695C11.8916 6.29556 11.5633 6.68325 11.3409 7.13325C11.1181 7.58325 11 8.09555 11 8.61663C11 9.09847 11.1015 9.58816 11.3141 10.0395C11.4587 10.346 11.6672 10.5865 11.909 10.7498C12.1512 10.9132 12.4265 11 12.7066 11C12.9654 11 13.2285 10.9257 13.4706 10.7702C13.6393 10.6617 13.7725 10.5038 13.8625 10.3215C13.9526 10.1392 14 9.93201 14 9.72108C14 9.52585 13.9589 9.32693 13.8728 9.14416C13.8108 9.01263 13.7203 8.90832 13.6164 8.83817C13.5121 8.76801 13.3936 8.73063 13.2727 8.73017C13.1609 8.73017 13.0467 8.76247 12.9425 8.82986C12.8634 8.88109 12.8002 8.9554 12.758 9.04124C12.7157 9.12709 12.6932 9.22447 12.6932 9.3237C12.6932 9.41509 12.7125 9.50878 12.7528 9.59416C12.8002 9.69431 12.9077 9.73078 12.9934 9.67539C13.0791 9.62001 13.1104 9.49401 13.0629 9.39432C13.0523 9.37124 13.0475 9.34816 13.0475 9.3237C13.0475 9.29739 13.0535 9.27109 13.0649 9.24801C13.0764 9.22493 13.0922 9.20601 13.1139 9.1917C13.1649 9.15893 13.2186 9.1437 13.2723 9.1437C13.3304 9.1437 13.3885 9.1617 13.4386 9.19586C13.4892 9.23001 13.5319 9.27939 13.5623 9.34309C13.6188 9.46308 13.6456 9.59185 13.6456 9.7197C13.6456 9.8577 13.6144 9.99431 13.5556 10.1134C13.4967 10.2325 13.4106 10.3345 13.2996 10.406C13.1107 10.5274 12.9077 10.5846 12.7066 10.5846C12.4889 10.5846 12.2744 10.5172 12.0864 10.3903C11.8983 10.2634 11.7372 10.0774 11.6242 9.83878C11.4409 9.4497 11.354 9.03016 11.354 8.61571C11.354 8.16802 11.4555 7.72633 11.6471 7.33956C11.8387 6.95279 12.1196 6.62048 12.4799 6.38833C12.5656 6.33341 12.5968 6.20741 12.5498 6.10726C12.5028 6.0071 12.3949 5.97064 12.3092 6.02557" fill="#1F1F1F"/>
</svg>
