<svg width="20" height="20" viewBox="0 0 20 20" fill="none" xmlns="http://www.w3.org/2000/svg">
<path fill-rule="evenodd" clip-rule="evenodd" d="M7 5C7 4.44772 6.55228 4 6 4C5.44772 4 5 4.44772 5 5V8C5 8.55228 5.44772 9 6 9C6.55228 9 7 8.55228 7 8V5ZM10 4C10.5523 4 11 4.44772 11 5V8C11 8.55228 10.5523 9 10 9C9.44772 9 9 8.55228 9 8V5C9 4.44772 9.44772 4 10 4ZM14 4C14.5523 4 15 4.44772 15 5V8C15 8.55228 14.5523 9 14 9C13.4477 9 13 8.55228 13 8V5C13 4.44772 13.4477 4 14 4Z" fill="#19BAFF"/>
<path d="M7 2C7 2.55228 6.55228 3 6 3C5.44772 3 5 2.55228 5 2C5 1.44772 5.5 0.5 6.5 0C6.18119 0.637611 6.47221 1.05069 6.725 1.40951C6.86867 1.61345 7 1.79986 7 2Z" fill="#FDAD15"/>
<path d="M11 2C11 2.55228 10.5523 3 10 3C9.44772 3 9 2.55228 9 2C9 1.44772 9.5 0.5 10.5 0C10.1812 0.637611 10.4722 1.05069 10.725 1.40951C10.8687 1.61345 11 1.79986 11 2Z" fill="#FDAD15"/>
<path d="M14 3C14.5523 3 15 2.55228 15 2C15 1.79986 14.8687 1.61345 14.725 1.40951C14.4722 1.05069 14.1812 0.637611 14.5 0C13.5 0.5 13 1.44772 13 2C13 2.55228 13.4477 3 14 3Z" fill="#FDAD15"/>
<path fill-rule="evenodd" clip-rule="evenodd" d="M19 10C19 8.34315 17.6569 7 16 7H4C2.34315 7 1 8.34315 1 10V18H19V10Z" fill="#FA3F3F"/>
<path d="M19 11.5859L18.2929 12.293C18.1311 12.4548 17.8689 12.4548 17.7071 12.293C16.7643 11.3502 15.2357 11.3502 14.2929 12.293C14.1311 12.4548 13.8689 12.4548 13.7071 12.293C12.7643 11.3502 11.2357 11.3502 10.2929 12.293C10.1311 12.4548 9.86887 12.4548 9.70711 12.293C8.7643 11.3502 7.2357 11.3502 6.29289 12.293C6.13113 12.4548 5.86887 12.4548 5.70711 12.293C4.7643 11.3502 3.2357 11.3502 2.29289 12.293C2.13113 12.4548 1.86887 12.4548 1.70711 12.293L1 11.5859V14.1982C1.88993 14.6029 2.97508 14.4393 3.70711 13.7073C3.86887 13.5455 4.13113 13.5455 4.29289 13.7073C5.2357 14.6501 6.7643 14.6501 7.70711 13.7073C7.86887 13.5455 8.13113 13.5455 8.29289 13.7073C9.2357 14.6501 10.7643 14.6501 11.7071 13.7073C11.8689 13.5455 12.1311 13.5455 12.2929 13.7073C13.2357 14.6501 14.7643 14.6501 15.7071 13.7073C15.8689 13.5455 16.1311 13.5455 16.2929 13.7073C17.0249 14.4393 18.1101 14.6029 19 14.1982V11.5859Z" fill="white"/>
<path fill-rule="evenodd" clip-rule="evenodd" d="M0 19C0 18.4477 0.447715 18 1 18H19C19.5523 18 20 18.4477 20 19C20 19.5523 19.5523 20 19 20H1C0.447715 20 0 19.5523 0 19Z" fill="#FFBDA8"/>
</svg>
