<svg width="40" height="40" viewBox="0 0 40 40" fill="none" xmlns="http://www.w3.org/2000/svg">
<g id="icon_&#234;&#184;&#176;&#237;&#131;&#128;">
<circle id="Ellipse 127" cx="20" cy="20" r="20" fill="#F4F4F4"/>
<path id="Vector" d="M29 20.0033C29 21.1033 28.103 22 27 22C25.897 22 25 21.1033 25 20.0033C25 18.9032 25.897 18 27 18C28.103 18 29 18.8993 29 20.0033Z" fill="#5F5F5F"/>
<path id="Vector_2" d="M15 20.0033C15 21.1033 14.1057 22 12.9987 22C11.8916 22 11 21.1033 11 20.0033C11 18.9032 11.8969 18 12.9987 18C14.1005 18 15 18.8993 15 20.0033Z" fill="#5F5F5F"/>
<path id="Vector_3" d="M22 20.0033C22 21.1033 21.1057 22 19.9987 22C18.8916 22 18 21.1033 18 20.0033C18 18.9032 18.8969 18 19.9987 18C21.1005 18 22 18.8993 22 20.0033Z" fill="#5F5F5F"/>
</g>
</svg>
