<svg width="40" height="40" viewBox="0 0 40 40" fill="none" xmlns="http://www.w3.org/2000/svg">
<circle cx="20" cy="20" r="20" fill="#FFF2E3"/>
<path fill-rule="evenodd" clip-rule="evenodd" d="M17 15C17 14.4477 16.5523 14 16 14C15.4477 14 15 14.4477 15 15V18C15 18.5523 15.4477 19 16 19C16.5523 19 17 18.5523 17 18V15ZM20 14C20.5523 14 21 14.4477 21 15V18C21 18.5523 20.5523 19 20 19C19.4477 19 19 18.5523 19 18V15C19 14.4477 19.4477 14 20 14ZM24 14C24.5523 14 25 14.4477 25 15V18C25 18.5523 24.5523 19 24 19C23.4477 19 23 18.5523 23 18V15C23 14.4477 23.4477 14 24 14Z" fill="#19BAFF"/>
<path d="M17 12C17 12.5523 16.5523 13 16 13C15.4477 13 15 12.5523 15 12C15 11.4477 15.5 10.5 16.5 10C16.1812 10.6376 16.4722 11.0507 16.725 11.4095C16.8687 11.6134 17 11.7999 17 12Z" fill="#FDAD15"/>
<path d="M21 12C21 12.5523 20.5523 13 20 13C19.4477 13 19 12.5523 19 12C19 11.4477 19.5 10.5 20.5 10C20.1812 10.6376 20.4722 11.0507 20.725 11.4095C20.8687 11.6134 21 11.7999 21 12Z" fill="#FDAD15"/>
<path d="M24 13C24.5523 13 25 12.5523 25 12C25 11.7999 24.8687 11.6134 24.725 11.4095C24.4722 11.0507 24.1812 10.6376 24.5 10C23.5 10.5 23 11.4477 23 12C23 12.5523 23.4477 13 24 13Z" fill="#FDAD15"/>
<path fill-rule="evenodd" clip-rule="evenodd" d="M29 20C29 18.3431 27.6569 17 26 17H14C12.3431 17 11 18.3431 11 20V28H29V20Z" fill="#FA3F3F"/>
<path d="M29 21.5859L28.2929 22.293C28.1311 22.4548 27.8689 22.4548 27.7071 22.293C26.7643 21.3502 25.2357 21.3502 24.2929 22.293C24.1311 22.4548 23.8689 22.4548 23.7071 22.293C22.7643 21.3502 21.2357 21.3502 20.2929 22.293C20.1311 22.4548 19.8689 22.4548 19.7071 22.293C18.7643 21.3502 17.2357 21.3502 16.2929 22.293C16.1311 22.4548 15.8689 22.4548 15.7071 22.293C14.7643 21.3502 13.2357 21.3502 12.2929 22.293C12.1311 22.4548 11.8689 22.4548 11.7071 22.293L11 21.5859V24.1982C11.8899 24.6029 12.9751 24.4393 13.7071 23.7073C13.8689 23.5455 14.1311 23.5455 14.2929 23.7073C15.2357 24.6501 16.7643 24.6501 17.7071 23.7073C17.8689 23.5455 18.1311 23.5455 18.2929 23.7073C19.2357 24.6501 20.7643 24.6501 21.7071 23.7073C21.8689 23.5455 22.1311 23.5455 22.2929 23.7073C23.2357 24.6501 24.7643 24.6501 25.7071 23.7073C25.8689 23.5455 26.1311 23.5455 26.2929 23.7073C27.0249 24.4393 28.1101 24.6029 29 24.1982V21.5859Z" fill="white"/>
<path fill-rule="evenodd" clip-rule="evenodd" d="M10 29C10 28.4477 10.4477 28 11 28H29C29.5523 28 30 28.4477 30 29C30 29.5523 29.5523 30 29 30H11C10.4477 30 10 29.5523 10 29Z" fill="#FFBDA8"/>
</svg>
