<svg width="40" height="40" viewBox="0 0 40 40" fill="none" xmlns="http://www.w3.org/2000/svg">
<circle cx="20" cy="20" r="20" fill="#F4F4F4"/>
<path d="M25 12.1042C20.6363 8.1796 16.4638 10.6464 14.8477 12.2817L16.6659 15.0071C19.575 12.8268 22.3225 14.0987 23.3326 15.0071L25 12.1042Z" fill="#222426"/>
<path d="M29 28.8583C24.5556 24.2509 17.7778 15.769 15 12.104C14.1111 12.9417 14 15.2454 14 16.2926C15.7778 19.6434 23.2593 28.1602 26.7778 31.9997L29 28.8583Z" fill="#35383B"/>
<path d="M11 28.8583C15.4444 24.2509 22.2222 15.769 25 12.104C25.8889 12.9417 26 15.2454 26 16.2926C24.2222 19.6434 16.7407 28.1602 13.2222 31.9997L11 28.8583Z" fill="#52575C"/>
</svg>
