<svg width="18" height="22" viewBox="0 0 18 22" fill="none" xmlns="http://www.w3.org/2000/svg">
<g id="Group 1171274895">
<path id="Vector 1345" d="M14 2.10421C9.6363 -1.8204 5.46384 0.646412 3.84766 2.28166L5.66586 5.00713C8.57499 2.8268 11.3225 4.09866 12.3326 5.00713L14 2.10421Z" fill="#222426"/>
<path id="Vector 1344" d="M18 18.8583C13.5556 14.2509 6.77778 5.76901 4 2.104C3.11111 2.94172 3 5.24544 3 6.29258C4.77778 9.64344 12.2593 18.1602 15.7778 21.9997L18 18.8583Z" fill="#35383B"/>
<path id="Vector 1343" d="M0 18.8583C4.44444 14.2509 11.2222 5.76901 14 2.104C14.8889 2.94172 15 5.24544 15 6.29258C13.2222 9.64344 5.74074 18.1602 2.22222 21.9997L0 18.8583Z" fill="#52575C"/>
</g>
</svg>
