<svg width="24" height="24" viewBox="0 0 24 24" fill="none" xmlns="http://www.w3.org/2000/svg">
<path fill-rule="evenodd" clip-rule="evenodd" d="M5 11.1097C5 7.7354 7.73543 4.99997 11.1097 4.99997C14.484 4.99997 17.2195 7.7354 17.2195 11.1097C17.2195 14.4841 14.484 17.2195 11.1097 17.2195C7.73543 17.2195 5 14.4841 5 11.1097ZM11.1097 2.99997C6.63085 2.99997 3 6.63084 3 11.1097C3 15.5886 6.63085 19.2195 11.1097 19.2195C12.9888 19.2195 14.7186 18.5804 16.0936 17.5078L19.2898 20.704C19.6803 21.0945 20.3134 21.0945 20.704 20.704C21.0945 20.3134 21.0945 19.6803 20.704 19.2897L17.5078 16.0936C18.5804 14.7185 19.2195 12.9888 19.2195 11.1097C19.2195 6.63084 15.5886 2.99997 11.1097 2.99997Z" fill="#1F1F1F"/>
</svg>
