<?xml version="1.0" encoding="utf-8"?>
<!-- Generator: Adobe Illustrator 27.8.1, SVG Export Plug-In . SVG Version: 6.00 Build 0)  -->
<svg version="1.1" id="레이어_1" xmlns="http://www.w3.org/2000/svg" xmlns:xlink="http://www.w3.org/1999/xlink" x="0px"
	 y="0px" viewBox="0 0 24 24" style="enable-background:new 0 0 24 24;" xml:space="preserve">
<style type="text/css">
	.st0{fill-rule:evenodd;clip-rule:evenodd;fill:#CCCCCC;}
</style>
<path class="st0" d="M5,11.1C5,7.7,7.7,5,11.1,5c3.4,0,6.1,2.7,6.1,6.1c0,3.4-2.7,6.1-6.1,6.1C7.7,17.2,5,14.5,5,11.1z M11.1,3
	C6.6,3,3,6.6,3,11.1c0,4.5,3.6,8.1,8.1,8.1c1.9,0,3.6-0.6,5-1.7l3.2,3.2c0.4,0.4,1,0.4,1.4,0c0.4-0.4,0.4-1,0-1.4l-3.2-3.2
	c1.1-1.4,1.7-3.1,1.7-5C19.2,6.6,15.6,3,11.1,3z"/>
</svg>
